<mxfile host="app.diagrams.net" modified="2022-07-29T03:24:47.593Z" agent="5.0 (Windows NT 10.0; Win64; x64) AppleWebKit/537.36 (KHTML, like Gecko) Chrome/103.0.0.0 Safari/537.36" etag="Qm_NgfXLfVvSEuL_Cbm4" version="20.2.0" type="github">
  <diagram id="Utj4QRkRQI-RT1qHg1_4" name="Page-1">
    <mxGraphModel dx="1422" dy="786" grid="1" gridSize="10" guides="1" tooltips="1" connect="1" arrows="1" fold="1" page="1" pageScale="1" pageWidth="3300" pageHeight="4681" math="0" shadow="0">
      <root>
        <mxCell id="0" />
        <mxCell id="1" parent="0" />
        <mxCell id="V0GBCuVhsDUneNpyOq4p-4" value="" style="edgeStyle=orthogonalEdgeStyle;rounded=0;orthogonalLoop=1;jettySize=auto;html=1;" edge="1" parent="1" source="V0GBCuVhsDUneNpyOq4p-1" target="V0GBCuVhsDUneNpyOq4p-3">
          <mxGeometry relative="1" as="geometry" />
        </mxCell>
        <mxCell id="V0GBCuVhsDUneNpyOq4p-1" value="Server.cs::CreateOrUpdate()" style="rounded=0;whiteSpace=wrap;html=1;fillColor=#d5e8d4;strokeColor=#82b366;" vertex="1" parent="1">
          <mxGeometry x="160" y="70" width="200" height="60" as="geometry" />
        </mxCell>
        <mxCell id="V0GBCuVhsDUneNpyOq4p-2" value="&lt;h1&gt;RestAPI入口&lt;/h1&gt;&lt;p&gt;src/OrcasBreadthRP/MySqlArm/&lt;br&gt;V20211201/Server/Controllers/&lt;br&gt;Server.cs&lt;br&gt;&lt;/p&gt;" style="text;html=1;strokeColor=none;fillColor=none;spacing=5;spacingTop=-20;whiteSpace=wrap;overflow=hidden;rounded=0;" vertex="1" parent="1">
          <mxGeometry x="360" y="50" width="190" height="120" as="geometry" />
        </mxCell>
        <mxCell id="V0GBCuVhsDUneNpyOq4p-7" value="" style="edgeStyle=orthogonalEdgeStyle;rounded=0;orthogonalLoop=1;jettySize=auto;html=1;" edge="1" parent="1" source="V0GBCuVhsDUneNpyOq4p-3" target="V0GBCuVhsDUneNpyOq4p-6">
          <mxGeometry relative="1" as="geometry" />
        </mxCell>
        <mxCell id="V0GBCuVhsDUneNpyOq4p-3" value="ArmUserInputValidator" style="whiteSpace=wrap;html=1;rounded=0;fillColor=#d5e8d4;strokeColor=#82b366;" vertex="1" parent="1">
          <mxGeometry x="200" y="210" width="120" height="60" as="geometry" />
        </mxCell>
        <mxCell id="V0GBCuVhsDUneNpyOq4p-5" value="&lt;h1&gt;参数检查&lt;/h1&gt;&lt;p&gt;检查 resourceGroupName&lt;/p&gt;&lt;p&gt;检查ServerName&lt;/p&gt;&lt;p&gt;检查 serverResource.Location&lt;/p&gt;" style="text;html=1;strokeColor=none;fillColor=none;spacing=5;spacingTop=-20;whiteSpace=wrap;overflow=hidden;rounded=0;" vertex="1" parent="1">
          <mxGeometry x="330" y="190" width="190" height="120" as="geometry" />
        </mxCell>
        <mxCell id="V0GBCuVhsDUneNpyOq4p-10" value="" style="edgeStyle=orthogonalEdgeStyle;rounded=0;orthogonalLoop=1;jettySize=auto;html=1;" edge="1" parent="1" source="V0GBCuVhsDUneNpyOq4p-6" target="V0GBCuVhsDUneNpyOq4p-9">
          <mxGeometry relative="1" as="geometry" />
        </mxCell>
        <mxCell id="V0GBCuVhsDUneNpyOq4p-6" value="serverResource.Validate()" style="whiteSpace=wrap;html=1;fillColor=#d5e8d4;strokeColor=#82b366;rounded=0;" vertex="1" parent="1">
          <mxGeometry x="175" y="350" width="170" height="60" as="geometry" />
        </mxCell>
        <mxCell id="V0GBCuVhsDUneNpyOq4p-8" value="&lt;h1&gt;检查body&lt;/h1&gt;&lt;p&gt;serverResource检查请求的body&lt;/p&gt;&lt;p&gt;patchRequest=false&lt;/p&gt;" style="text;html=1;strokeColor=none;fillColor=none;spacing=5;spacingTop=-20;whiteSpace=wrap;overflow=hidden;rounded=0;" vertex="1" parent="1">
          <mxGeometry x="350" y="330" width="190" height="120" as="geometry" />
        </mxCell>
        <mxCell id="V0GBCuVhsDUneNpyOq4p-12" value="" style="edgeStyle=orthogonalEdgeStyle;rounded=0;orthogonalLoop=1;jettySize=auto;html=1;" edge="1" parent="1" source="V0GBCuVhsDUneNpyOq4p-9" target="V0GBCuVhsDUneNpyOq4p-11">
          <mxGeometry relative="1" as="geometry" />
        </mxCell>
        <mxCell id="V0GBCuVhsDUneNpyOq4p-14" value="" style="edgeStyle=orthogonalEdgeStyle;rounded=0;orthogonalLoop=1;jettySize=auto;html=1;" edge="1" parent="1" source="V0GBCuVhsDUneNpyOq4p-9" target="V0GBCuVhsDUneNpyOq4p-13">
          <mxGeometry relative="1" as="geometry" />
        </mxCell>
        <mxCell id="V0GBCuVhsDUneNpyOq4p-15" value="Yes" style="edgeLabel;html=1;align=center;verticalAlign=middle;resizable=0;points=[];" vertex="1" connectable="0" parent="V0GBCuVhsDUneNpyOq4p-14">
          <mxGeometry x="-0.7368" y="-1" relative="1" as="geometry">
            <mxPoint as="offset" />
          </mxGeometry>
        </mxCell>
        <mxCell id="V0GBCuVhsDUneNpyOq4p-16" value="Replica" style="edgeLabel;html=1;align=center;verticalAlign=middle;resizable=0;points=[];" vertex="1" connectable="0" parent="V0GBCuVhsDUneNpyOq4p-14">
          <mxGeometry x="0.4947" y="-3" relative="1" as="geometry">
            <mxPoint as="offset" />
          </mxGeometry>
        </mxCell>
        <mxCell id="V0GBCuVhsDUneNpyOq4p-19" value="" style="edgeStyle=orthogonalEdgeStyle;rounded=0;orthogonalLoop=1;jettySize=auto;html=1;" edge="1" parent="1" source="V0GBCuVhsDUneNpyOq4p-9" target="V0GBCuVhsDUneNpyOq4p-18">
          <mxGeometry relative="1" as="geometry" />
        </mxCell>
        <mxCell id="V0GBCuVhsDUneNpyOq4p-9" value="createMode" style="whiteSpace=wrap;html=1;fillColor=#d5e8d4;strokeColor=#82b366;rounded=0;" vertex="1" parent="1">
          <mxGeometry x="200" y="490" width="120" height="60" as="geometry" />
        </mxCell>
        <mxCell id="V0GBCuVhsDUneNpyOq4p-11" value="RestoreServer" style="whiteSpace=wrap;html=1;fillColor=#fff2cc;strokeColor=#d6b656;rounded=0;" vertex="1" parent="1">
          <mxGeometry x="460" y="440" width="120" height="60" as="geometry" />
        </mxCell>
        <mxCell id="V0GBCuVhsDUneNpyOq4p-13" value="CreateReplication" style="whiteSpace=wrap;html=1;fillColor=#fff2cc;strokeColor=#d6b656;rounded=0;" vertex="1" parent="1">
          <mxGeometry x="460" y="540" width="120" height="60" as="geometry" />
        </mxCell>
        <mxCell id="V0GBCuVhsDUneNpyOq4p-17" value="GeoRestore" style="text;html=1;align=center;verticalAlign=middle;resizable=0;points=[];autosize=1;strokeColor=none;fillColor=none;" vertex="1" parent="1">
          <mxGeometry x="380" y="440" width="90" height="30" as="geometry" />
        </mxCell>
        <mxCell id="V0GBCuVhsDUneNpyOq4p-22" value="" style="edgeStyle=orthogonalEdgeStyle;rounded=0;orthogonalLoop=1;jettySize=auto;html=1;" edge="1" parent="1" source="V0GBCuVhsDUneNpyOq4p-18" target="V0GBCuVhsDUneNpyOq4p-21">
          <mxGeometry relative="1" as="geometry" />
        </mxCell>
        <mxCell id="V0GBCuVhsDUneNpyOq4p-18" value="MaintenanceWindow" style="whiteSpace=wrap;html=1;fillColor=#d5e8d4;strokeColor=#82b366;rounded=0;" vertex="1" parent="1">
          <mxGeometry x="200" y="630" width="120" height="60" as="geometry" />
        </mxCell>
        <mxCell id="V0GBCuVhsDUneNpyOq4p-20" value="&lt;h1&gt;设置维护窗口&lt;/h1&gt;&lt;p&gt;Lorem ipsum dolor sit amet, consectetur adipisicing elit, sed do eiusmod tempor incididunt ut labore et dolore magna aliqua.&lt;/p&gt;" style="text;html=1;strokeColor=none;fillColor=none;spacing=5;spacingTop=-20;whiteSpace=wrap;overflow=hidden;rounded=0;" vertex="1" parent="1">
          <mxGeometry x="330" y="610" width="190" height="120" as="geometry" />
        </mxCell>
        <mxCell id="V0GBCuVhsDUneNpyOq4p-24" value="" style="edgeStyle=orthogonalEdgeStyle;rounded=0;orthogonalLoop=1;jettySize=auto;html=1;" edge="1" parent="1" source="V0GBCuVhsDUneNpyOq4p-21" target="V0GBCuVhsDUneNpyOq4p-23">
          <mxGeometry relative="1" as="geometry" />
        </mxCell>
        <mxCell id="V0GBCuVhsDUneNpyOq4p-21" value="UpsertServerAsync" style="whiteSpace=wrap;html=1;fillColor=#f8cecc;strokeColor=#b85450;rounded=0;" vertex="1" parent="1">
          <mxGeometry x="200" y="770" width="120" height="60" as="geometry" />
        </mxCell>
        <mxCell id="V0GBCuVhsDUneNpyOq4p-28" value="" style="edgeStyle=orthogonalEdgeStyle;rounded=0;orthogonalLoop=1;jettySize=auto;html=1;" edge="1" parent="1" source="V0GBCuVhsDUneNpyOq4p-23" target="V0GBCuVhsDUneNpyOq4p-27">
          <mxGeometry relative="1" as="geometry" />
        </mxCell>
        <mxCell id="V0GBCuVhsDUneNpyOq4p-30" style="edgeStyle=orthogonalEdgeStyle;rounded=0;orthogonalLoop=1;jettySize=auto;html=1;exitX=1;exitY=0.5;exitDx=0;exitDy=0;" edge="1" parent="1" target="V0GBCuVhsDUneNpyOq4p-31">
          <mxGeometry relative="1" as="geometry">
            <mxPoint x="549" y="801" as="targetPoint" />
            <mxPoint x="319" y="801" as="sourcePoint" />
            <Array as="points">
              <mxPoint x="449" y="801" />
              <mxPoint x="449" y="801" />
            </Array>
          </mxGeometry>
        </mxCell>
        <mxCell id="V0GBCuVhsDUneNpyOq4p-23" value="AsyncOperationResourceIdentifier" style="whiteSpace=wrap;html=1;fillColor=#d5e8d4;strokeColor=#82b366;rounded=0;" vertex="1" parent="1">
          <mxGeometry x="160" y="910" width="200" height="60" as="geometry" />
        </mxCell>
        <mxCell id="V0GBCuVhsDUneNpyOq4p-25" value="&lt;h1&gt;创建MysqlNode&lt;/h1&gt;&lt;p&gt;第一个hook函数&lt;/p&gt;" style="text;html=1;strokeColor=none;fillColor=none;spacing=5;spacingTop=-20;whiteSpace=wrap;overflow=hidden;rounded=0;" vertex="1" parent="1">
          <mxGeometry x="330" y="760" width="190" height="120" as="geometry" />
        </mxCell>
        <mxCell id="V0GBCuVhsDUneNpyOq4p-26" value="&lt;h1&gt;资源识别&lt;/h1&gt;&lt;p&gt;第二个hook函数&lt;/p&gt;" style="text;html=1;strokeColor=none;fillColor=none;spacing=5;spacingTop=-20;whiteSpace=wrap;overflow=hidden;rounded=0;" vertex="1" parent="1">
          <mxGeometry x="360" y="890" width="190" height="120" as="geometry" />
        </mxCell>
        <mxCell id="V0GBCuVhsDUneNpyOq4p-27" value="CreateOperationResultsResponse" style="whiteSpace=wrap;html=1;fillColor=#d5e8d4;strokeColor=#82b366;rounded=0;" vertex="1" parent="1">
          <mxGeometry x="140" y="1050" width="240" height="60" as="geometry" />
        </mxCell>
        <mxCell id="V0GBCuVhsDUneNpyOq4p-29" value="&lt;h1&gt;3rd接口&lt;/h1&gt;&lt;p&gt;ARM提供的接口&lt;/p&gt;" style="text;html=1;strokeColor=none;fillColor=none;spacing=5;spacingTop=-20;whiteSpace=wrap;overflow=hidden;rounded=0;" vertex="1" parent="1">
          <mxGeometry x="390" y="1030" width="190" height="120" as="geometry" />
        </mxCell>
        <mxCell id="V0GBCuVhsDUneNpyOq4p-33" value="" style="edgeStyle=orthogonalEdgeStyle;rounded=0;orthogonalLoop=1;jettySize=auto;html=1;" edge="1" parent="1" source="V0GBCuVhsDUneNpyOq4p-31" target="V0GBCuVhsDUneNpyOq4p-32">
          <mxGeometry relative="1" as="geometry" />
        </mxCell>
        <mxCell id="V0GBCuVhsDUneNpyOq4p-31" value="location设置" style="rounded=1;whiteSpace=wrap;html=1;fillColor=#fff2cc;strokeColor=#d6b656;" vertex="1" parent="1">
          <mxGeometry x="680" y="770" width="120" height="60" as="geometry" />
        </mxCell>
        <mxCell id="V0GBCuVhsDUneNpyOq4p-35" value="" style="edgeStyle=orthogonalEdgeStyle;rounded=0;orthogonalLoop=1;jettySize=auto;html=1;" edge="1" parent="1" source="V0GBCuVhsDUneNpyOq4p-32" target="V0GBCuVhsDUneNpyOq4p-34">
          <mxGeometry relative="1" as="geometry" />
        </mxCell>
        <mxCell id="V0GBCuVhsDUneNpyOq4p-32" value="instanceType设置" style="whiteSpace=wrap;html=1;fillColor=#fff2cc;strokeColor=#d6b656;rounded=1;" vertex="1" parent="1">
          <mxGeometry x="680" y="910" width="120" height="60" as="geometry" />
        </mxCell>
        <mxCell id="V0GBCuVhsDUneNpyOq4p-41" value="" style="edgeStyle=orthogonalEdgeStyle;rounded=0;orthogonalLoop=1;jettySize=auto;html=1;" edge="1" parent="1" source="V0GBCuVhsDUneNpyOq4p-34" target="V0GBCuVhsDUneNpyOq4p-40">
          <mxGeometry relative="1" as="geometry" />
        </mxCell>
        <mxCell id="V0GBCuVhsDUneNpyOq4p-34" value="backupRetentionMinutes" style="whiteSpace=wrap;html=1;fillColor=#fff2cc;strokeColor=#d6b656;rounded=1;" vertex="1" parent="1">
          <mxGeometry x="660" y="1050" width="160" height="60" as="geometry" />
        </mxCell>
        <mxCell id="V0GBCuVhsDUneNpyOq4p-39" value="" style="edgeStyle=orthogonalEdgeStyle;rounded=0;orthogonalLoop=1;jettySize=auto;html=1;" edge="1" parent="1" source="V0GBCuVhsDUneNpyOq4p-36" target="V0GBCuVhsDUneNpyOq4p-38">
          <mxGeometry relative="1" as="geometry" />
        </mxCell>
        <mxCell id="V0GBCuVhsDUneNpyOq4p-36" value="检查vmSize" style="whiteSpace=wrap;html=1;fillColor=#fff2cc;strokeColor=#d6b656;rounded=1;" vertex="1" parent="1">
          <mxGeometry x="680" y="1300" width="120" height="60" as="geometry" />
        </mxCell>
        <mxCell id="V0GBCuVhsDUneNpyOq4p-44" value="" style="edgeStyle=orthogonalEdgeStyle;rounded=0;orthogonalLoop=1;jettySize=auto;html=1;" edge="1" parent="1" source="V0GBCuVhsDUneNpyOq4p-38" target="V0GBCuVhsDUneNpyOq4p-43">
          <mxGeometry relative="1" as="geometry" />
        </mxCell>
        <mxCell id="V0GBCuVhsDUneNpyOq4p-38" value="VnetInjection" style="whiteSpace=wrap;html=1;fillColor=#fff2cc;strokeColor=#d6b656;rounded=1;" vertex="1" parent="1">
          <mxGeometry x="680" y="1440" width="120" height="60" as="geometry" />
        </mxCell>
        <mxCell id="V0GBCuVhsDUneNpyOq4p-42" style="edgeStyle=orthogonalEdgeStyle;rounded=0;orthogonalLoop=1;jettySize=auto;html=1;" edge="1" parent="1" source="V0GBCuVhsDUneNpyOq4p-40" target="V0GBCuVhsDUneNpyOq4p-36">
          <mxGeometry relative="1" as="geometry" />
        </mxCell>
        <mxCell id="V0GBCuVhsDUneNpyOq4p-40" value="UpdateResourceSkuByName()" style="whiteSpace=wrap;html=1;fillColor=#fff2cc;strokeColor=#d6b656;rounded=1;" vertex="1" parent="1">
          <mxGeometry x="625" y="1190" width="230" height="60" as="geometry" />
        </mxCell>
        <mxCell id="V0GBCuVhsDUneNpyOq4p-46" value="" style="edgeStyle=orthogonalEdgeStyle;rounded=0;orthogonalLoop=1;jettySize=auto;html=1;" edge="1" parent="1" source="V0GBCuVhsDUneNpyOq4p-43" target="V0GBCuVhsDUneNpyOq4p-45">
          <mxGeometry relative="1" as="geometry" />
        </mxCell>
        <mxCell id="V0GBCuVhsDUneNpyOq4p-43" value="PrivateDnsZone?" style="whiteSpace=wrap;html=1;fillColor=#fff2cc;strokeColor=#d6b656;rounded=1;" vertex="1" parent="1">
          <mxGeometry x="680" y="1580" width="120" height="60" as="geometry" />
        </mxCell>
        <mxCell id="V0GBCuVhsDUneNpyOq4p-48" value="" style="edgeStyle=orthogonalEdgeStyle;rounded=0;orthogonalLoop=1;jettySize=auto;html=1;" edge="1" parent="1" source="V0GBCuVhsDUneNpyOq4p-45" target="V0GBCuVhsDUneNpyOq4p-47">
          <mxGeometry relative="1" as="geometry" />
        </mxCell>
        <mxCell id="V0GBCuVhsDUneNpyOq4p-45" value="解析CreateMode" style="whiteSpace=wrap;html=1;fillColor=#fff2cc;strokeColor=#d6b656;rounded=1;" vertex="1" parent="1">
          <mxGeometry x="680" y="1720" width="120" height="60" as="geometry" />
        </mxCell>
        <mxCell id="V0GBCuVhsDUneNpyOq4p-57" value="" style="edgeStyle=orthogonalEdgeStyle;rounded=0;orthogonalLoop=1;jettySize=auto;html=1;" edge="1" parent="1" source="V0GBCuVhsDUneNpyOq4p-47" target="V0GBCuVhsDUneNpyOq4p-56">
          <mxGeometry relative="1" as="geometry" />
        </mxCell>
        <mxCell id="V0GBCuVhsDUneNpyOq4p-47" value="获取existingServer" style="whiteSpace=wrap;html=1;fillColor=#fff2cc;strokeColor=#d6b656;rounded=1;" vertex="1" parent="1">
          <mxGeometry x="680" y="1860" width="120" height="60" as="geometry" />
        </mxCell>
        <mxCell id="V0GBCuVhsDUneNpyOq4p-59" value="" style="edgeStyle=orthogonalEdgeStyle;rounded=0;orthogonalLoop=1;jettySize=auto;html=1;" edge="1" parent="1" source="V0GBCuVhsDUneNpyOq4p-56" target="V0GBCuVhsDUneNpyOq4p-58">
          <mxGeometry relative="1" as="geometry" />
        </mxCell>
        <mxCell id="V0GBCuVhsDUneNpyOq4p-56" value="是否是对当前Server的更新?" style="whiteSpace=wrap;html=1;fillColor=#fff2cc;strokeColor=#d6b656;rounded=1;" vertex="1" parent="1">
          <mxGeometry x="680" y="2000" width="120" height="60" as="geometry" />
        </mxCell>
        <mxCell id="V0GBCuVhsDUneNpyOq4p-61" value="" style="edgeStyle=orthogonalEdgeStyle;rounded=0;orthogonalLoop=1;jettySize=auto;html=1;" edge="1" parent="1" source="V0GBCuVhsDUneNpyOq4p-58" target="V0GBCuVhsDUneNpyOq4p-60">
          <mxGeometry relative="1" as="geometry" />
        </mxCell>
        <mxCell id="V0GBCuVhsDUneNpyOq4p-58" value="如果是新建，检查 server name是否可用" style="whiteSpace=wrap;html=1;fillColor=#fff2cc;strokeColor=#d6b656;rounded=1;" vertex="1" parent="1">
          <mxGeometry x="680" y="2140" width="120" height="60" as="geometry" />
        </mxCell>
        <mxCell id="V0GBCuVhsDUneNpyOq4p-64" value="" style="edgeStyle=orthogonalEdgeStyle;rounded=0;orthogonalLoop=1;jettySize=auto;html=1;" edge="1" parent="1" source="V0GBCuVhsDUneNpyOq4p-60" target="V0GBCuVhsDUneNpyOq4p-63">
          <mxGeometry relative="1" as="geometry" />
        </mxCell>
        <mxCell id="V0GBCuVhsDUneNpyOq4p-60" value="是否需要PublicIP" style="whiteSpace=wrap;html=1;fillColor=#fff2cc;strokeColor=#d6b656;rounded=1;" vertex="1" parent="1">
          <mxGeometry x="680" y="2280" width="120" height="60" as="geometry" />
        </mxCell>
        <mxCell id="V0GBCuVhsDUneNpyOq4p-62" value="&lt;h1&gt;vnet?&lt;/h1&gt;&lt;p&gt;如果使用了vnet，当然是不能使用&lt;/p&gt;&lt;p&gt;publicIP。这里只看crate/migrate&lt;br&gt;&lt;br&gt;existingServer如果存在&lt;/p&gt;&lt;p&gt;&amp;nbsp; &amp;nbsp; &amp;nbsp;a. 要么有public ip&lt;/p&gt;&lt;p&gt;&amp;nbsp; &amp;nbsp; &amp;nbsp;b. 要么vnet&lt;/p&gt;" style="text;html=1;strokeColor=none;fillColor=none;spacing=5;spacingTop=-20;whiteSpace=wrap;overflow=hidden;rounded=0;" vertex="1" parent="1">
          <mxGeometry x="810" y="2270" width="190" height="190" as="geometry" />
        </mxCell>
        <mxCell id="V0GBCuVhsDUneNpyOq4p-66" value="" style="edgeStyle=orthogonalEdgeStyle;rounded=0;orthogonalLoop=1;jettySize=auto;html=1;" edge="1" parent="1" source="V0GBCuVhsDUneNpyOq4p-63" target="V0GBCuVhsDUneNpyOq4p-65">
          <mxGeometry relative="1" as="geometry" />
        </mxCell>
        <mxCell id="V0GBCuVhsDUneNpyOq4p-63" value="拿到Standby的个数/HAMode" style="whiteSpace=wrap;html=1;fillColor=#fff2cc;strokeColor=#d6b656;rounded=1;" vertex="1" parent="1">
          <mxGeometry x="680" y="2540" width="120" height="60" as="geometry" />
        </mxCell>
        <mxCell id="V0GBCuVhsDUneNpyOq4p-68" value="" style="edgeStyle=orthogonalEdgeStyle;rounded=0;orthogonalLoop=1;jettySize=auto;html=1;" edge="1" parent="1" source="V0GBCuVhsDUneNpyOq4p-65" target="V0GBCuVhsDUneNpyOq4p-67">
          <mxGeometry relative="1" as="geometry" />
        </mxCell>
        <mxCell id="V0GBCuVhsDUneNpyOq4p-65" value="geoBackupEanble?" style="whiteSpace=wrap;html=1;fillColor=#fff2cc;strokeColor=#d6b656;rounded=1;" vertex="1" parent="1">
          <mxGeometry x="680" y="2680" width="120" height="60" as="geometry" />
        </mxCell>
        <mxCell id="V0GBCuVhsDUneNpyOq4p-70" value="" style="edgeStyle=orthogonalEdgeStyle;rounded=0;orthogonalLoop=1;jettySize=auto;html=1;" edge="1" parent="1" source="V0GBCuVhsDUneNpyOq4p-67" target="V0GBCuVhsDUneNpyOq4p-69">
          <mxGeometry relative="1" as="geometry" />
        </mxCell>
        <mxCell id="V0GBCuVhsDUneNpyOq4p-67" value="storageAutoGrow?" style="whiteSpace=wrap;html=1;fillColor=#fff2cc;strokeColor=#d6b656;rounded=1;" vertex="1" parent="1">
          <mxGeometry x="680" y="2820" width="120" height="60" as="geometry" />
        </mxCell>
        <mxCell id="V0GBCuVhsDUneNpyOq4p-72" value="" style="edgeStyle=orthogonalEdgeStyle;rounded=0;orthogonalLoop=1;jettySize=auto;html=1;" edge="1" parent="1" source="V0GBCuVhsDUneNpyOq4p-69" target="V0GBCuVhsDUneNpyOq4p-71">
          <mxGeometry relative="1" as="geometry" />
        </mxCell>
        <mxCell id="V0GBCuVhsDUneNpyOq4p-69" value="data加密" style="whiteSpace=wrap;html=1;fillColor=#fff2cc;strokeColor=#d6b656;rounded=1;" vertex="1" parent="1">
          <mxGeometry x="680" y="2960" width="120" height="60" as="geometry" />
        </mxCell>
        <mxCell id="V0GBCuVhsDUneNpyOq4p-71" value="UpsertServerAsync" style="whiteSpace=wrap;html=1;fillColor=#fff2cc;strokeColor=#d6b656;rounded=1;" vertex="1" parent="1">
          <mxGeometry x="680" y="3100" width="120" height="60" as="geometry" />
        </mxCell>
      </root>
    </mxGraphModel>
  </diagram>
</mxfile>
